<mxfile host="app.diagrams.net" modified="2023-06-05T06:08:40.877Z" agent="Mozilla/5.0 (Windows NT 10.0; Win64; x64) AppleWebKit/537.36 (KHTML, like Gecko) Chrome/114.0.0.0 Safari/537.36" version="21.3.7" etag="BI8IXQe8M9jupAnp42e3" type="github">
  <diagram name="페이지-1" id="MbT4JIV0ff0Loh2wwZqA">
    <mxGraphModel>
      <root>
        <mxCell id="0" />
        <mxCell id="1" parent="0" />
      </root>
    </mxGraphModel>
  </diagram>
</mxfile>
